<svg width="400" height="400" viewBox="0 0 400 400" fill="none" xmlns="http://www.w3.org/2000/svg">
<path d="M66.6665 133.333H333.333M66.6665 133.333V280C66.6665 298.667 66.6665 308 70.2998 315.133C73.4956 321.405 78.5947 326.504 84.8665 329.7C91.9832 333.333 101.317 333.333 119.95 333.333H280.05C298.683 333.333 308 333.333 315.116 329.7C321.4 326.5 326.5 321.4 329.7 315.133C333.333 308 333.333 298.7 333.333 280.067V133.333M66.6665 133.333V120C66.6665 101.333 66.6665 92 70.2998 84.8667C73.4998 78.5833 78.5832 73.5 84.8665 70.3C91.9998 66.6667 101.333 66.6667 120 66.6667H133.333M333.333 133.333V119.95C333.333 101.317 333.333 91.9833 329.7 84.8667C326.5 78.5923 321.394 73.4929 315.116 70.3C308 66.6667 298.666 66.6667 280 66.6667H266.666M133.333 66.6667H266.666M133.333 66.6667V33.3333M266.666 66.6667V33.3333M250 200L183.333 266.667L150 233.333" stroke="black" stroke-width="25" stroke-linecap="round" stroke-linejoin="round"/>
</svg>
