<svg width="300" height="300" viewBox="0 0 300 300" fill="none" xmlns="http://www.w3.org/2000/svg">
<path d="M15.0121 90.0055C18.99 90.0055 22.8049 88.4253 25.6177 85.6125C28.4305 82.7997 30.0108 78.9847 30.0108 75.0068V30.0108H75.0068C78.9847 30.0108 82.7997 28.4306 85.6125 25.6178C88.4253 22.805 90.0055 18.99 90.0055 15.0121C90.0055 11.0342 88.4253 7.21921 85.6125 4.40641C82.7997 1.59361 78.9847 0.0134011 75.0068 0.0134011H22.5114C19.5287 -0.0913531 16.5564 0.418932 13.7794 1.51249C11.0024 2.60605 8.48025 4.25948 6.36987 6.36987C4.25948 8.48026 2.60605 11.0024 1.51249 13.7794C0.418932 16.5564 -0.091353 19.5287 0.0134011 22.5114V75.0068C0.0134011 78.9847 1.59361 82.7997 4.40641 85.6125C7.21921 88.4253 11.0342 90.0055 15.0121 90.0055Z" fill="black"/>
<path d="M75.0068 269.989H30.0108V224.993C30.0108 221.015 28.4305 217.2 25.6177 214.387C22.8049 211.575 18.99 209.994 15.0121 209.994C11.0342 209.994 7.21921 211.575 4.40641 214.387C1.59361 217.2 0.0134011 221.015 0.0134011 224.993V277.489C-0.091353 280.471 0.418932 283.444 1.51249 286.221C2.60605 288.998 4.25948 291.52 6.36987 293.63C8.48025 295.741 11.0024 297.394 13.7794 298.488C16.5564 299.581 19.5287 300.091 22.5114 299.987H75.0068C78.9847 299.987 82.7997 298.406 85.6125 295.594C88.4253 292.781 90.0055 288.966 90.0055 284.988C90.0055 281.01 88.4253 277.195 85.6125 274.382C82.7997 271.569 78.9847 269.989 75.0068 269.989Z" fill="black"/>
<path d="M277.489 0.0134011H224.993C221.015 0.0134011 217.2 1.59361 214.388 4.40641C211.575 7.21921 209.995 11.0342 209.995 15.0121C209.995 18.99 211.575 22.805 214.388 25.6178C217.2 28.4306 221.015 30.0108 224.993 30.0108H269.989V75.0068C269.989 78.9847 271.57 82.7997 274.382 85.6125C277.195 88.4253 281.01 90.0055 284.988 90.0055C288.966 90.0055 292.781 88.4253 295.594 85.6125C298.406 82.7997 299.987 78.9847 299.987 75.0068V22.5114C300.091 19.5287 299.581 16.5564 298.488 13.7794C297.394 11.0024 295.741 8.48026 293.63 6.36987C291.52 4.25948 288.998 2.60605 286.221 1.51249C283.444 0.418932 280.471 -0.0913531 277.489 0.0134011Z" fill="black"/>
<path d="M284.988 209.994C281.01 209.994 277.195 211.575 274.382 214.387C271.569 217.2 269.989 221.015 269.989 224.993V269.989H224.993C221.015 269.989 217.2 271.569 214.387 274.382C211.574 277.195 209.994 281.01 209.994 284.988C209.994 288.966 211.574 292.781 214.387 295.594C217.2 298.406 221.015 299.987 224.993 299.987H277.488C280.471 300.091 283.443 299.581 286.22 298.488C288.997 297.394 291.519 295.741 293.63 293.63C295.74 291.52 297.394 288.998 298.487 286.221C299.581 283.444 300.091 280.471 299.986 277.489V224.993C299.986 221.015 298.406 217.2 295.593 214.387C292.78 211.575 288.965 209.994 284.988 209.994Z" fill="black"/>
<path d="M67.5078 90.0049V120.002C67.5078 123.98 69.088 127.795 71.9008 130.608C74.7136 133.421 78.5286 135.001 82.5065 135.001C86.4844 135.001 90.2994 133.421 93.1122 130.608C95.9249 127.795 97.5052 123.98 97.5052 120.002V90.0049C97.5052 86.027 95.9249 82.212 93.1122 79.3992C90.2994 76.5864 86.4844 75.0062 82.5065 75.0062C78.5286 75.0062 74.7136 76.5864 71.9008 79.3992C69.088 82.212 67.5078 86.027 67.5078 90.0049Z" fill="black"/>
<path d="M217.494 135.001C221.472 135.001 225.287 133.421 228.1 130.608C230.913 127.795 232.493 123.98 232.493 120.002V90.0049C232.493 86.027 230.913 82.212 228.1 79.3992C225.287 76.5864 221.472 75.0062 217.494 75.0062C213.516 75.0062 209.701 76.5864 206.889 79.3992C204.076 82.212 202.496 86.027 202.496 90.0049V120.002C202.496 123.98 204.076 127.795 206.889 130.608C209.701 133.421 213.516 135.001 217.494 135.001Z" fill="black"/>
<path d="M127.502 172.498C139.436 172.498 150.881 167.757 159.319 159.319C167.757 150.88 172.498 139.435 172.498 127.502V90.0049C172.498 86.027 170.918 82.212 168.105 79.3992C165.292 76.5864 161.477 75.0062 157.499 75.0062C153.522 75.0062 149.707 76.5864 146.894 79.3992C144.081 82.212 142.501 86.027 142.501 90.0049V127.502C142.501 131.479 140.921 135.294 138.108 138.107C135.295 140.92 131.48 142.5 127.502 142.5C123.524 142.5 119.709 144.08 116.896 146.893C114.084 149.706 112.503 153.521 112.503 157.499C112.503 161.477 114.084 165.292 116.896 168.105C119.709 170.917 123.524 172.498 127.502 172.498Z" fill="black"/>
<path d="M221.244 204.745C223.284 201.707 224.143 198.027 223.659 194.4C223.174 190.772 221.381 187.447 218.615 185.05C215.849 182.653 212.303 181.35 208.643 181.386C204.984 181.423 201.463 182.796 198.746 185.247C192.929 192.69 185.548 198.765 177.125 203.041C168.702 207.318 159.442 209.691 150 209.995C140.558 209.691 131.299 207.318 122.875 203.041C114.452 198.765 107.071 192.69 101.254 185.247C100.07 183.483 98.5244 181.991 96.7198 180.869C94.9152 179.748 92.8929 179.022 90.7869 178.741C88.6808 178.46 86.5391 178.63 84.5035 179.239C82.4679 179.848 80.5849 180.882 78.9793 182.274C77.3737 183.665 76.082 185.382 75.1899 187.31C74.2978 189.239 73.8255 191.335 73.8044 193.459C73.7834 195.584 74.214 197.689 75.0677 199.634C75.9214 201.58 77.1787 203.322 78.7565 204.745C87.3242 215.481 98.1464 224.203 110.458 230.294C122.769 236.384 136.268 239.695 150 239.992C163.732 239.695 177.232 236.384 189.543 230.294C201.854 224.203 212.676 215.481 221.244 204.745Z" fill="black"/>
</svg>
